<mxfile host="Electron" modified="2023-09-27T03:34:40.162Z" agent="Mozilla/5.0 (Macintosh; Intel Mac OS X 10_15_7) AppleWebKit/537.36 (KHTML, like Gecko) draw.io/21.8.2 Chrome/114.0.5735.289 Electron/25.8.1 Safari/537.36" etag="TqjitAgM-sh6STowsdyc" version="21.8.2" type="device">
  <diagram id="C5RBs43oDa-KdzZeNtuy" name="Page-1">
    <mxGraphModel dx="2415" dy="2317" grid="1" gridSize="10" guides="1" tooltips="1" connect="1" arrows="1" fold="1" page="1" pageScale="1" pageWidth="827" pageHeight="1169" math="0" shadow="0">
      <root>
        <mxCell id="WIyWlLk6GJQsqaUBKTNV-0" />
        <mxCell id="WIyWlLk6GJQsqaUBKTNV-1" parent="WIyWlLk6GJQsqaUBKTNV-0" />
        <mxCell id="GolUxKl1V3qzR0WS60hO-0" value="&lt;h2&gt;User&lt;/h2&gt;" style="text;html=1;strokeColor=none;fillColor=none;align=center;verticalAlign=middle;whiteSpace=wrap;rounded=0;" vertex="1" parent="WIyWlLk6GJQsqaUBKTNV-1">
          <mxGeometry x="30" y="50" width="140" height="90" as="geometry" />
        </mxCell>
        <mxCell id="GolUxKl1V3qzR0WS60hO-2" value="&lt;h2&gt;Mobile App&lt;/h2&gt;" style="text;html=1;strokeColor=none;fillColor=none;align=center;verticalAlign=middle;whiteSpace=wrap;rounded=0;" vertex="1" parent="WIyWlLk6GJQsqaUBKTNV-1">
          <mxGeometry x="350" y="50" width="140" height="90" as="geometry" />
        </mxCell>
        <mxCell id="GolUxKl1V3qzR0WS60hO-12" value="" style="edgeStyle=orthogonalEdgeStyle;rounded=0;orthogonalLoop=1;jettySize=auto;html=1;" edge="1" parent="WIyWlLk6GJQsqaUBKTNV-1" source="GolUxKl1V3qzR0WS60hO-3" target="GolUxKl1V3qzR0WS60hO-5">
          <mxGeometry relative="1" as="geometry" />
        </mxCell>
        <mxCell id="GolUxKl1V3qzR0WS60hO-3" value="&lt;h2&gt;Backend&lt;/h2&gt;" style="text;html=1;strokeColor=none;fillColor=none;align=center;verticalAlign=middle;whiteSpace=wrap;rounded=0;" vertex="1" parent="WIyWlLk6GJQsqaUBKTNV-1">
          <mxGeometry x="650" y="50" width="140" height="90" as="geometry" />
        </mxCell>
        <mxCell id="GolUxKl1V3qzR0WS60hO-6" value="" style="edgeStyle=orthogonalEdgeStyle;rounded=0;orthogonalLoop=1;jettySize=auto;html=1;" edge="1" parent="WIyWlLk6GJQsqaUBKTNV-1" source="GolUxKl1V3qzR0WS60hO-4" target="GolUxKl1V3qzR0WS60hO-5">
          <mxGeometry relative="1" as="geometry" />
        </mxCell>
        <mxCell id="GolUxKl1V3qzR0WS60hO-4" value="START" style="html=1;dashed=0;whiteSpace=wrap;shape=mxgraph.dfd.start" vertex="1" parent="WIyWlLk6GJQsqaUBKTNV-1">
          <mxGeometry x="680" y="130" width="80" height="30" as="geometry" />
        </mxCell>
        <mxCell id="GolUxKl1V3qzR0WS60hO-9" value="" style="edgeStyle=orthogonalEdgeStyle;rounded=0;orthogonalLoop=1;jettySize=auto;html=1;" edge="1" parent="WIyWlLk6GJQsqaUBKTNV-1" source="GolUxKl1V3qzR0WS60hO-5" target="GolUxKl1V3qzR0WS60hO-8">
          <mxGeometry relative="1" as="geometry" />
        </mxCell>
        <mxCell id="GolUxKl1V3qzR0WS60hO-5" value="Check current date" style="rounded=1;whiteSpace=wrap;html=1;fontSize=12;glass=0;strokeWidth=1;shadow=0;" vertex="1" parent="WIyWlLk6GJQsqaUBKTNV-1">
          <mxGeometry x="660" y="200" width="120" height="40" as="geometry" />
        </mxCell>
        <mxCell id="GolUxKl1V3qzR0WS60hO-14" value="" style="edgeStyle=orthogonalEdgeStyle;rounded=0;orthogonalLoop=1;jettySize=auto;html=1;" edge="1" parent="WIyWlLk6GJQsqaUBKTNV-1" source="GolUxKl1V3qzR0WS60hO-7" target="GolUxKl1V3qzR0WS60hO-13">
          <mxGeometry relative="1" as="geometry" />
        </mxCell>
        <mxCell id="GolUxKl1V3qzR0WS60hO-15" value="No" style="edgeLabel;html=1;align=center;verticalAlign=middle;resizable=0;points=[];" vertex="1" connectable="0" parent="GolUxKl1V3qzR0WS60hO-14">
          <mxGeometry x="-0.324" y="4" relative="1" as="geometry">
            <mxPoint x="1" as="offset" />
          </mxGeometry>
        </mxCell>
        <mxCell id="GolUxKl1V3qzR0WS60hO-17" value="" style="edgeStyle=orthogonalEdgeStyle;rounded=0;orthogonalLoop=1;jettySize=auto;html=1;" edge="1" parent="WIyWlLk6GJQsqaUBKTNV-1" source="GolUxKl1V3qzR0WS60hO-7" target="GolUxKl1V3qzR0WS60hO-16">
          <mxGeometry relative="1" as="geometry" />
        </mxCell>
        <mxCell id="GolUxKl1V3qzR0WS60hO-7" value="Get a list user&lt;br&gt;(today birthdate)" style="rhombus;whiteSpace=wrap;html=1;shadow=0;fontFamily=Helvetica;fontSize=12;align=center;strokeWidth=1;spacing=6;spacingTop=-4;" vertex="1" parent="WIyWlLk6GJQsqaUBKTNV-1">
          <mxGeometry x="667.5" y="410" width="105" height="80" as="geometry" />
        </mxCell>
        <mxCell id="GolUxKl1V3qzR0WS60hO-10" value="" style="edgeStyle=orthogonalEdgeStyle;rounded=0;orthogonalLoop=1;jettySize=auto;html=1;" edge="1" parent="WIyWlLk6GJQsqaUBKTNV-1" source="GolUxKl1V3qzR0WS60hO-8" target="GolUxKl1V3qzR0WS60hO-7">
          <mxGeometry relative="1" as="geometry" />
        </mxCell>
        <mxCell id="GolUxKl1V3qzR0WS60hO-8" value="Check User data with filter birthdate match to current date" style="rounded=1;whiteSpace=wrap;html=1;fontSize=12;glass=0;strokeWidth=1;shadow=0;" vertex="1" parent="WIyWlLk6GJQsqaUBKTNV-1">
          <mxGeometry x="660" y="280" width="120" height="90" as="geometry" />
        </mxCell>
        <mxCell id="GolUxKl1V3qzR0WS60hO-13" value="END" style="html=1;dashed=0;whiteSpace=wrap;shape=mxgraph.dfd.start" vertex="1" parent="WIyWlLk6GJQsqaUBKTNV-1">
          <mxGeometry x="820" y="435" width="80" height="30" as="geometry" />
        </mxCell>
        <mxCell id="GolUxKl1V3qzR0WS60hO-20" value="" style="edgeStyle=orthogonalEdgeStyle;rounded=0;orthogonalLoop=1;jettySize=auto;html=1;" edge="1" parent="WIyWlLk6GJQsqaUBKTNV-1" source="GolUxKl1V3qzR0WS60hO-16" target="GolUxKl1V3qzR0WS60hO-19">
          <mxGeometry relative="1" as="geometry" />
        </mxCell>
        <mxCell id="GolUxKl1V3qzR0WS60hO-16" value="Generate HBD&lt;br&gt;message &amp;amp; promo code" style="rounded=1;whiteSpace=wrap;html=1;fontSize=12;glass=0;strokeWidth=1;shadow=0;" vertex="1" parent="WIyWlLk6GJQsqaUBKTNV-1">
          <mxGeometry x="645" y="545" width="150" height="40" as="geometry" />
        </mxCell>
        <mxCell id="GolUxKl1V3qzR0WS60hO-18" value="Send message to email/WA" style="rounded=1;whiteSpace=wrap;html=1;fontSize=12;glass=0;strokeWidth=1;shadow=0;" vertex="1" parent="WIyWlLk6GJQsqaUBKTNV-1">
          <mxGeometry x="660" y="610" width="120" height="40" as="geometry" />
        </mxCell>
        <mxCell id="GolUxKl1V3qzR0WS60hO-22" value="" style="edgeStyle=orthogonalEdgeStyle;rounded=0;orthogonalLoop=1;jettySize=auto;html=1;" edge="1" parent="WIyWlLk6GJQsqaUBKTNV-1" source="GolUxKl1V3qzR0WS60hO-19" target="GolUxKl1V3qzR0WS60hO-21">
          <mxGeometry relative="1" as="geometry" />
        </mxCell>
        <mxCell id="GolUxKl1V3qzR0WS60hO-23" value="No" style="edgeLabel;html=1;align=center;verticalAlign=middle;resizable=0;points=[];" vertex="1" connectable="0" parent="GolUxKl1V3qzR0WS60hO-22">
          <mxGeometry x="-0.2543" y="3" relative="1" as="geometry">
            <mxPoint as="offset" />
          </mxGeometry>
        </mxCell>
        <mxCell id="GolUxKl1V3qzR0WS60hO-29" style="edgeStyle=orthogonalEdgeStyle;rounded=0;orthogonalLoop=1;jettySize=auto;html=1;exitX=0;exitY=0.5;exitDx=0;exitDy=0;entryX=1;entryY=0.5;entryDx=0;entryDy=0;" edge="1" parent="WIyWlLk6GJQsqaUBKTNV-1" source="GolUxKl1V3qzR0WS60hO-19" target="GolUxKl1V3qzR0WS60hO-24">
          <mxGeometry relative="1" as="geometry" />
        </mxCell>
        <mxCell id="GolUxKl1V3qzR0WS60hO-19" value="Message send ?" style="rhombus;whiteSpace=wrap;html=1;shadow=0;fontFamily=Helvetica;fontSize=12;align=center;strokeWidth=1;spacing=6;spacingTop=-4;" vertex="1" parent="WIyWlLk6GJQsqaUBKTNV-1">
          <mxGeometry x="676.88" y="680" width="86.25" height="70" as="geometry" />
        </mxCell>
        <mxCell id="GolUxKl1V3qzR0WS60hO-21" value="END" style="html=1;dashed=0;whiteSpace=wrap;shape=mxgraph.dfd.start" vertex="1" parent="WIyWlLk6GJQsqaUBKTNV-1">
          <mxGeometry x="820" y="700" width="80" height="30" as="geometry" />
        </mxCell>
        <mxCell id="GolUxKl1V3qzR0WS60hO-45" value="" style="edgeStyle=orthogonalEdgeStyle;rounded=0;orthogonalLoop=1;jettySize=auto;html=1;" edge="1" parent="WIyWlLk6GJQsqaUBKTNV-1" source="GolUxKl1V3qzR0WS60hO-24" target="GolUxKl1V3qzR0WS60hO-44">
          <mxGeometry relative="1" as="geometry" />
        </mxCell>
        <mxCell id="GolUxKl1V3qzR0WS60hO-24" value="Retreive birthday message and promo code via email/WA" style="rounded=1;whiteSpace=wrap;html=1;fontSize=12;glass=0;strokeWidth=1;shadow=0;" vertex="1" parent="WIyWlLk6GJQsqaUBKTNV-1">
          <mxGeometry x="43" y="691" width="136" height="46" as="geometry" />
        </mxCell>
        <mxCell id="GolUxKl1V3qzR0WS60hO-52" value="" style="edgeStyle=orthogonalEdgeStyle;rounded=0;orthogonalLoop=1;jettySize=auto;html=1;" edge="1" parent="WIyWlLk6GJQsqaUBKTNV-1" source="GolUxKl1V3qzR0WS60hO-43" target="GolUxKl1V3qzR0WS60hO-51">
          <mxGeometry relative="1" as="geometry" />
        </mxCell>
        <mxCell id="GolUxKl1V3qzR0WS60hO-43" value="Select sayaKaya products" style="rounded=1;whiteSpace=wrap;html=1;fontSize=12;glass=0;strokeWidth=1;shadow=0;" vertex="1" parent="WIyWlLk6GJQsqaUBKTNV-1">
          <mxGeometry x="360" y="805" width="120" height="40" as="geometry" />
        </mxCell>
        <mxCell id="GolUxKl1V3qzR0WS60hO-46" style="edgeStyle=orthogonalEdgeStyle;rounded=0;orthogonalLoop=1;jettySize=auto;html=1;exitX=1;exitY=0.5;exitDx=0;exitDy=0;entryX=0;entryY=0.5;entryDx=0;entryDy=0;" edge="1" parent="WIyWlLk6GJQsqaUBKTNV-1" source="GolUxKl1V3qzR0WS60hO-44" target="GolUxKl1V3qzR0WS60hO-43">
          <mxGeometry relative="1" as="geometry" />
        </mxCell>
        <mxCell id="GolUxKl1V3qzR0WS60hO-47" value="YES" style="edgeLabel;html=1;align=center;verticalAlign=middle;resizable=0;points=[];" vertex="1" connectable="0" parent="GolUxKl1V3qzR0WS60hO-46">
          <mxGeometry x="-0.1732" y="5" relative="1" as="geometry">
            <mxPoint as="offset" />
          </mxGeometry>
        </mxCell>
        <mxCell id="GolUxKl1V3qzR0WS60hO-49" value="" style="edgeStyle=orthogonalEdgeStyle;rounded=0;orthogonalLoop=1;jettySize=auto;html=1;" edge="1" parent="WIyWlLk6GJQsqaUBKTNV-1" source="GolUxKl1V3qzR0WS60hO-44" target="GolUxKl1V3qzR0WS60hO-48">
          <mxGeometry relative="1" as="geometry" />
        </mxCell>
        <mxCell id="GolUxKl1V3qzR0WS60hO-50" value="NO" style="edgeLabel;html=1;align=center;verticalAlign=middle;resizable=0;points=[];" vertex="1" connectable="0" parent="GolUxKl1V3qzR0WS60hO-49">
          <mxGeometry x="-0.2111" relative="1" as="geometry">
            <mxPoint as="offset" />
          </mxGeometry>
        </mxCell>
        <mxCell id="GolUxKl1V3qzR0WS60hO-44" value="Is user&lt;br&gt;interested&amp;nbsp;&lt;br&gt;with promo ?" style="rhombus;whiteSpace=wrap;html=1;shadow=0;fontFamily=Helvetica;fontSize=12;align=center;strokeWidth=1;spacing=6;spacingTop=-4;" vertex="1" parent="WIyWlLk6GJQsqaUBKTNV-1">
          <mxGeometry x="59.94" y="780" width="102.12" height="90" as="geometry" />
        </mxCell>
        <mxCell id="GolUxKl1V3qzR0WS60hO-48" value="END" style="html=1;dashed=0;whiteSpace=wrap;shape=mxgraph.dfd.start" vertex="1" parent="WIyWlLk6GJQsqaUBKTNV-1">
          <mxGeometry x="71" y="930" width="80" height="30" as="geometry" />
        </mxCell>
        <mxCell id="GolUxKl1V3qzR0WS60hO-56" style="edgeStyle=orthogonalEdgeStyle;rounded=0;orthogonalLoop=1;jettySize=auto;html=1;exitX=1;exitY=0.5;exitDx=0;exitDy=0;entryX=0;entryY=0.5;entryDx=0;entryDy=0;" edge="1" parent="WIyWlLk6GJQsqaUBKTNV-1" source="GolUxKl1V3qzR0WS60hO-51" target="GolUxKl1V3qzR0WS60hO-55">
          <mxGeometry relative="1" as="geometry" />
        </mxCell>
        <mxCell id="GolUxKl1V3qzR0WS60hO-51" value="Apply promo code" style="rounded=1;whiteSpace=wrap;html=1;fontSize=12;glass=0;strokeWidth=1;shadow=0;" vertex="1" parent="WIyWlLk6GJQsqaUBKTNV-1">
          <mxGeometry x="360" y="880" width="120" height="40" as="geometry" />
        </mxCell>
        <mxCell id="GolUxKl1V3qzR0WS60hO-58" value="" style="edgeStyle=orthogonalEdgeStyle;rounded=0;orthogonalLoop=1;jettySize=auto;html=1;" edge="1" parent="WIyWlLk6GJQsqaUBKTNV-1" source="GolUxKl1V3qzR0WS60hO-55" target="GolUxKl1V3qzR0WS60hO-57">
          <mxGeometry relative="1" as="geometry" />
        </mxCell>
        <mxCell id="GolUxKl1V3qzR0WS60hO-55" value="Validate promo code" style="rounded=1;whiteSpace=wrap;html=1;fontSize=12;glass=0;strokeWidth=1;shadow=0;" vertex="1" parent="WIyWlLk6GJQsqaUBKTNV-1">
          <mxGeometry x="660.01" y="880" width="120" height="40" as="geometry" />
        </mxCell>
        <mxCell id="GolUxKl1V3qzR0WS60hO-61" style="edgeStyle=orthogonalEdgeStyle;rounded=0;orthogonalLoop=1;jettySize=auto;html=1;exitX=0;exitY=0.5;exitDx=0;exitDy=0;entryX=1;entryY=0.5;entryDx=0;entryDy=0;" edge="1" parent="WIyWlLk6GJQsqaUBKTNV-1" source="GolUxKl1V3qzR0WS60hO-57" target="GolUxKl1V3qzR0WS60hO-60">
          <mxGeometry relative="1" as="geometry" />
        </mxCell>
        <mxCell id="GolUxKl1V3qzR0WS60hO-62" value="NO" style="edgeLabel;html=1;align=center;verticalAlign=middle;resizable=0;points=[];" vertex="1" connectable="0" parent="GolUxKl1V3qzR0WS60hO-61">
          <mxGeometry x="0.0937" y="-1" relative="1" as="geometry">
            <mxPoint as="offset" />
          </mxGeometry>
        </mxCell>
        <mxCell id="GolUxKl1V3qzR0WS60hO-64" value="" style="edgeStyle=orthogonalEdgeStyle;rounded=0;orthogonalLoop=1;jettySize=auto;html=1;" edge="1" parent="WIyWlLk6GJQsqaUBKTNV-1" source="GolUxKl1V3qzR0WS60hO-57" target="GolUxKl1V3qzR0WS60hO-63">
          <mxGeometry relative="1" as="geometry" />
        </mxCell>
        <mxCell id="GolUxKl1V3qzR0WS60hO-65" value="YES" style="edgeLabel;html=1;align=center;verticalAlign=middle;resizable=0;points=[];" vertex="1" connectable="0" parent="GolUxKl1V3qzR0WS60hO-64">
          <mxGeometry x="-0.261" y="-4" relative="1" as="geometry">
            <mxPoint as="offset" />
          </mxGeometry>
        </mxCell>
        <mxCell id="GolUxKl1V3qzR0WS60hO-57" value="Is promo&lt;br&gt;valid ?" style="rhombus;whiteSpace=wrap;html=1;shadow=0;fontFamily=Helvetica;fontSize=12;align=center;strokeWidth=1;spacing=6;spacingTop=-4;" vertex="1" parent="WIyWlLk6GJQsqaUBKTNV-1">
          <mxGeometry x="676.87" y="950" width="86.25" height="70" as="geometry" />
        </mxCell>
        <mxCell id="GolUxKl1V3qzR0WS60hO-68" value="" style="edgeStyle=orthogonalEdgeStyle;rounded=0;orthogonalLoop=1;jettySize=auto;html=1;" edge="1" parent="WIyWlLk6GJQsqaUBKTNV-1" source="GolUxKl1V3qzR0WS60hO-60" target="GolUxKl1V3qzR0WS60hO-66">
          <mxGeometry relative="1" as="geometry" />
        </mxCell>
        <mxCell id="GolUxKl1V3qzR0WS60hO-60" value="Promo cannot applied" style="rounded=1;whiteSpace=wrap;html=1;fontSize=12;glass=0;strokeWidth=1;shadow=0;" vertex="1" parent="WIyWlLk6GJQsqaUBKTNV-1">
          <mxGeometry x="360" y="964" width="120" height="40" as="geometry" />
        </mxCell>
        <mxCell id="GolUxKl1V3qzR0WS60hO-67" style="edgeStyle=orthogonalEdgeStyle;rounded=0;orthogonalLoop=1;jettySize=auto;html=1;exitX=0;exitY=0.5;exitDx=0;exitDy=0;entryX=1;entryY=0.5;entryDx=0;entryDy=0;" edge="1" parent="WIyWlLk6GJQsqaUBKTNV-1" source="GolUxKl1V3qzR0WS60hO-63" target="GolUxKl1V3qzR0WS60hO-66">
          <mxGeometry relative="1" as="geometry" />
        </mxCell>
        <mxCell id="GolUxKl1V3qzR0WS60hO-63" value="Calculate total price with promo" style="rounded=1;whiteSpace=wrap;html=1;fontSize=12;glass=0;strokeWidth=1;shadow=0;" vertex="1" parent="WIyWlLk6GJQsqaUBKTNV-1">
          <mxGeometry x="659.99" y="1060" width="120" height="40" as="geometry" />
        </mxCell>
        <mxCell id="GolUxKl1V3qzR0WS60hO-72" style="edgeStyle=orthogonalEdgeStyle;rounded=0;orthogonalLoop=1;jettySize=auto;html=1;exitX=0;exitY=0.5;exitDx=0;exitDy=0;entryX=1;entryY=0.5;entryDx=0;entryDy=0;" edge="1" parent="WIyWlLk6GJQsqaUBKTNV-1" source="GolUxKl1V3qzR0WS60hO-66" target="GolUxKl1V3qzR0WS60hO-69">
          <mxGeometry relative="1" as="geometry" />
        </mxCell>
        <mxCell id="GolUxKl1V3qzR0WS60hO-66" value="Display final price" style="rounded=1;whiteSpace=wrap;html=1;fontSize=12;glass=0;strokeWidth=1;shadow=0;" vertex="1" parent="WIyWlLk6GJQsqaUBKTNV-1">
          <mxGeometry x="360" y="1060" width="120" height="40" as="geometry" />
        </mxCell>
        <mxCell id="GolUxKl1V3qzR0WS60hO-74" value="" style="edgeStyle=orthogonalEdgeStyle;rounded=0;orthogonalLoop=1;jettySize=auto;html=1;" edge="1" parent="WIyWlLk6GJQsqaUBKTNV-1" source="GolUxKl1V3qzR0WS60hO-69" target="GolUxKl1V3qzR0WS60hO-71">
          <mxGeometry relative="1" as="geometry" />
        </mxCell>
        <mxCell id="GolUxKl1V3qzR0WS60hO-75" value="NO" style="edgeLabel;html=1;align=center;verticalAlign=middle;resizable=0;points=[];" vertex="1" connectable="0" parent="GolUxKl1V3qzR0WS60hO-74">
          <mxGeometry x="0.1643" y="2" relative="1" as="geometry">
            <mxPoint x="1" as="offset" />
          </mxGeometry>
        </mxCell>
        <mxCell id="GolUxKl1V3qzR0WS60hO-77" value="" style="edgeStyle=orthogonalEdgeStyle;rounded=0;orthogonalLoop=1;jettySize=auto;html=1;" edge="1" parent="WIyWlLk6GJQsqaUBKTNV-1" source="GolUxKl1V3qzR0WS60hO-69" target="GolUxKl1V3qzR0WS60hO-76">
          <mxGeometry relative="1" as="geometry" />
        </mxCell>
        <mxCell id="GolUxKl1V3qzR0WS60hO-78" value="YES" style="edgeLabel;html=1;align=center;verticalAlign=middle;resizable=0;points=[];" vertex="1" connectable="0" parent="GolUxKl1V3qzR0WS60hO-77">
          <mxGeometry x="-0.5238" y="-1" relative="1" as="geometry">
            <mxPoint as="offset" />
          </mxGeometry>
        </mxCell>
        <mxCell id="GolUxKl1V3qzR0WS60hO-69" value="Is user satisfied&lt;br&gt;with final price ?" style="rhombus;whiteSpace=wrap;html=1;shadow=0;fontFamily=Helvetica;fontSize=12;align=center;strokeWidth=1;spacing=6;spacingTop=-4;" vertex="1" parent="WIyWlLk6GJQsqaUBKTNV-1">
          <mxGeometry x="65.47" y="1037.5" width="91.06" height="85" as="geometry" />
        </mxCell>
        <mxCell id="GolUxKl1V3qzR0WS60hO-71" value="END" style="html=1;dashed=0;whiteSpace=wrap;shape=mxgraph.dfd.start" vertex="1" parent="WIyWlLk6GJQsqaUBKTNV-1">
          <mxGeometry x="-60" y="1065" width="80" height="30" as="geometry" />
        </mxCell>
        <mxCell id="GolUxKl1V3qzR0WS60hO-81" value="" style="edgeStyle=orthogonalEdgeStyle;rounded=0;orthogonalLoop=1;jettySize=auto;html=1;" edge="1" parent="WIyWlLk6GJQsqaUBKTNV-1" source="GolUxKl1V3qzR0WS60hO-76" target="GolUxKl1V3qzR0WS60hO-80">
          <mxGeometry relative="1" as="geometry" />
        </mxCell>
        <mxCell id="GolUxKl1V3qzR0WS60hO-76" value="Proceed to checkout" style="rounded=1;whiteSpace=wrap;html=1;fontSize=12;glass=0;strokeWidth=1;shadow=0;" vertex="1" parent="WIyWlLk6GJQsqaUBKTNV-1">
          <mxGeometry x="51" y="1169" width="120" height="40" as="geometry" />
        </mxCell>
        <mxCell id="GolUxKl1V3qzR0WS60hO-79" value="&lt;h2&gt;Birthday Message &amp;amp; Birthday Promo Flowchart&amp;nbsp;&lt;/h2&gt;" style="text;html=1;strokeColor=none;fillColor=none;align=center;verticalAlign=middle;whiteSpace=wrap;rounded=0;" vertex="1" parent="WIyWlLk6GJQsqaUBKTNV-1">
          <mxGeometry x="197.5" y="-10" width="470" height="90" as="geometry" />
        </mxCell>
        <mxCell id="GolUxKl1V3qzR0WS60hO-80" value="END" style="html=1;dashed=0;whiteSpace=wrap;shape=mxgraph.dfd.start" vertex="1" parent="WIyWlLk6GJQsqaUBKTNV-1">
          <mxGeometry x="71" y="1240" width="80" height="30" as="geometry" />
        </mxCell>
      </root>
    </mxGraphModel>
  </diagram>
</mxfile>
